<?xml version="1.0" encoding="UTF-8"?>
<svg version="1.1" xmlns="http://www.w3.org/2000/svg" width="500" height="500">
<path d="M0 0 C0.96627319 0.00054382 1.93254639 0.00108765 2.92810059 0.00164795 C18.83357776 0.04267698 34.0935703 1.00561098 49.6875 4.375 C50.71665527 4.59462402 51.74581055 4.81424805 52.80615234 5.04052734 C59.83652267 6.58377937 66.77485043 8.37092287 73.6875 10.375 C74.51701172 10.61524902 75.34652344 10.85549805 76.20117188 11.10302734 C110.21422819 21.28901359 142.30314586 40.58667325 168.04296875 64.8828125 C170.47761573 67.17720655 172.96884707 69.37592419 175.5 71.5625 C178.8382157 74.52516643 181.82687148 77.60573002 184.69921875 81.01953125 C186.21352275 82.81349061 187.76474407 84.57635786 189.33203125 86.32421875 C226.54144148 128.03933445 250.42209001 186.12449967 250.92578125 242.2109375 C250.9355751 243.12000351 250.94536896 244.02906952 250.95545959 244.96568298 C251.13040186 265.42413008 250.90590167 285.26535918 246.6875 305.375 C246.47319336 306.40238281 246.25888672 307.42976563 246.03808594 308.48828125 C239.24988918 339.90962869 227.02743303 370.83933833 208.6875 397.375 C208.28611816 397.96732422 207.88473633 398.55964844 207.47119141 399.16992188 C201.43143282 408.05853293 194.77456408 416.30496067 187.6875 424.375 C186.93726563 425.23738281 186.18703125 426.09976562 185.4140625 426.98828125 C176.26397906 437.34406161 166.62420217 446.90650299 155.6875 455.375 C155.12111816 455.82311035 154.55473633 456.2712207 153.97119141 456.73291016 C132.9725859 473.3196194 109.31649025 486.14660518 84.25 495.5 C83.16126587 495.90665894 83.16126587 495.90665894 82.05053711 496.3215332 C78.21315024 497.68387439 74.42091698 498.68065135 70.42163086 499.45654297 C69.53189072 499.6303952 68.64215057 499.80424744 67.72544861 499.98336792 C67.05292557 500.11260651 66.38040253 500.24184509 65.6875 500.375 C65.68253478 498.96557963 65.68253478 498.96557963 65.67746925 497.52768612 C65.59630463 474.61479435 65.50393769 451.70196832 65.39997292 428.78916836 C65.34995199 417.70849918 65.30350824 406.62783701 65.265625 395.54711914 C65.23257856 385.88384804 65.19267838 376.22063309 65.14470994 366.55742413 C65.11957018 361.44568434 65.09775263 356.33398119 65.08415604 351.22219658 C65.07122114 346.40002623 65.04904649 341.57798234 65.02011681 336.75588226 C65.01112952 334.99644663 65.0053718 333.23699069 65.00328636 331.47753334 C64.97057608 308.04922053 61.79579833 287.50621962 45.1015625 269.6953125 C32.53961035 257.62120315 16.29683016 251.82354641 -0.95678711 252.02587891 C-19.37752027 252.63132279 -33.84001522 260.28911433 -46.3125 273.375 C-60.84266551 289.01869221 -62.76477999 308.1634955 -62.74487305 328.49755859 C-62.75390865 330.38137955 -62.76424022 332.26519466 -62.77575684 334.14900208 C-62.80314189 339.22034125 -62.81258601 344.29156831 -62.81861091 349.36297178 C-62.8280431 354.67876272 -62.85425014 359.9944715 -62.87861633 365.31021118 C-62.9221524 375.35723842 -62.95077836 385.4042496 -62.97393972 395.45134223 C-63.00106078 406.89768782 -63.04496785 418.34395023 -63.09022844 429.79023623 C-63.18288991 453.31844561 -63.25465504 476.84668107 -63.3125 500.375 C-68.69385673 499.62908265 -73.49949613 498.54738159 -78.625 496.8125 C-79.40770264 496.54783936 -80.19040527 496.28317871 -80.99682617 496.01049805 C-101.38405691 488.94012404 -121.857028 479.1014995 -139.3125 466.375 C-139.91336426 465.94106934 -140.51422852 465.50713867 -141.13330078 465.06005859 C-160.51191735 451.01862998 -178.63974124 435.39220688 -193.3125 416.375 C-194.09753906 415.3953125 -194.88257813 414.415625 -195.69140625 413.40625 C-221.80346516 380.60789807 -238.4033502 341.38375604 -246.3125 300.375 C-246.47766113 299.55741211 -246.64282227 298.73982422 -246.81298828 297.89746094 C-252.22766483 269.9561621 -251.79054343 237.26025384 -246.3125 209.375 C-246.15152832 208.47942383 -245.99055664 207.58384766 -245.82470703 206.66113281 C-237.37734876 159.96939458 -215.47109748 116.8080068 -183.56640625 81.8515625 C-182.0382804 80.17247795 -180.52564142 78.47919177 -179.02734375 76.7734375 C-174.41099488 71.53154564 -169.66559537 66.84978093 -164.3125 62.375 C-162.92998047 61.16070312 -162.92998047 61.16070312 -161.51953125 59.921875 C-126.67485322 29.45494755 -83.04050177 9.33133668 -37.3125 2.375 C-36.14662354 2.19243652 -34.98074707 2.00987305 -33.77954102 1.82177734 C-22.51920591 0.22281972 -11.36216985 -0.0241437 0 0 Z M-29.5 51 C-30.98077026 51.21003662 -30.98077026 51.21003662 -32.49145508 51.42431641 C-43.11043153 53.16422221 -52.80857228 56.37387779 -63.3125 59.375 C-63.3125 113.165 -63.3125 166.955 -63.3125 222.375 C-58.6925 219.735 -54.0725 217.095 -49.3125 214.375 C-23.62831318 202.34276834 6.306066 198.61267254 33.6875 207.375 C34.70408691 207.68848389 34.70408691 207.68848389 35.74121094 208.00830078 C50.45790716 212.6573281 62.96456047 220.40606089 74.6875 230.375 C75.698125 231.138125 76.70875 231.90125 77.75 232.6875 C82.26572221 236.81890543 85.94615613 241.54407177 89.6875 246.375 C90.60402344 247.550625 90.60402344 247.550625 91.5390625 248.75 C110.29032628 274.09417388 113.12511657 302.6137004 113.19921875 333.1640625 C113.21609801 335.80635392 113.23425252 338.44863748 113.25361633 341.09091187 C113.29689178 347.28453892 113.32567563 353.47814049 113.34893972 359.67187154 C113.37620338 366.7363173 113.42009951 373.80063121 113.46522844 380.86498189 C113.557515 395.36824349 113.62944867 409.87156135 113.6875 424.375 C115.12190309 423.42782142 116.55510053 422.47881685 117.98779297 421.52905273 C119.18515579 420.73663429 119.18515579 420.73663429 120.40670776 419.9282074 C129.04298698 414.04694713 136.60070895 406.64580451 144 399.3125 C144.66467285 398.65709229 145.3293457 398.00168457 146.01416016 397.32641602 C146.62437012 396.71209717 147.23458008 396.09777832 147.86328125 395.46484375 C148.40895752 394.91691162 148.95463379 394.36897949 149.5168457 393.80444336 C150.89869917 392.42505086 150.89869917 392.42505086 150.6875 390.375 C151.3475 390.375 152.0075 390.375 152.6875 390.375 C154.01822677 389.06140503 154.01822677 389.06140503 155.33984375 387.2890625 C155.86336426 386.61536621 156.38688477 385.94166992 156.92626953 385.24755859 C157.76714111 384.13501709 157.76714111 384.13501709 158.625 383 C159.20620605 382.23123535 159.78741211 381.4624707 160.38623047 380.67041016 C184.72442454 347.96492426 201.64569365 306.88606182 201.890625 265.703125 C201.90121445 264.5088665 201.90121445 264.5088665 201.91201782 263.29048157 C202.13068761 238.68100318 202.13068761 238.68100318 198.6875 214.375 C198.48882324 213.43769043 198.29014648 212.50038086 198.08544922 211.53466797 C191.56190865 181.4384235 179.43712923 153.88249903 160.6875 129.375 C159.97980469 128.4365625 159.27210938 127.498125 158.54296875 126.53125 C153.31378755 119.80040984 147.52469888 113.57543991 141.6875 107.375 C140.99269531 106.61445312 140.29789063 105.85390625 139.58203125 105.0703125 C111.91080091 75.84692417 71.65038524 58.31781361 32.6875 51.375 C31.41132813 51.13007812 30.13515625 50.88515625 28.8203125 50.6328125 C9.9466318 47.61797948 -10.63119972 48.27274483 -29.5 51 Z M-119.6875 89.1875 C-120.62589722 89.93193359 -120.62589722 89.93193359 -121.58325195 90.69140625 C-127.76043661 95.64629193 -133.58790322 100.9077761 -139.3125 106.375 C-140.23804688 107.24769531 -141.16359375 108.12039062 -142.1171875 109.01953125 C-179.99462903 145.66300514 -200.60210962 198.91385672 -201.59570312 251.10009766 C-202.03871194 303.45635615 -183.99979636 354.50186261 -148.33203125 393.16796875 C-146.57345093 395.08982152 -144.90430225 397.05147489 -143.25 399.0625 C-139.95452094 402.923688 -136.19925852 406.12413853 -132.3125 409.375 C-131.34441406 410.19613281 -130.37632812 411.01726562 -129.37890625 411.86328125 C-121.10811618 420.0821941 -121.10811618 420.0821941 -111.3125 424.375 C-111.3125 312.175 -111.3125 199.975 -111.3125 84.375 C-114.74010248 84.375 -117.10024728 87.12349249 -119.6875 89.1875 Z " fill="#000000" transform="translate(249.3125,-0.375)"/>
<path d="M0 0 C11.25031674 3.37509502 11.25031674 3.37509502 15.64575195 5.05297852 C16.62989578 5.42669083 17.61403961 5.80040314 18.62800598 6.18544006 C20.16759224 6.77620583 20.16759224 6.77620583 21.73828125 7.37890625 C22.82207565 7.79164291 23.90587006 8.20437958 25.02250671 8.62962341 C28.45377173 9.9372882 31.88313549 11.24986037 35.3125 12.5625 C37.63334372 13.44757988 39.9543062 14.33234843 42.27539062 15.21679688 C46.51804 16.83482698 50.76038969 18.45362531 55.0012207 20.07641602 C55.84820023 20.40045914 56.69517975 20.72450226 57.56782532 21.05836487 C60.05249308 22.0203231 62.52618236 23.01047294 65 24 C65 59.97 65 95.94 65 133 C53.12 138.28 41.24 143.56 29 149 C17.06217914 154.54375462 17.06217914 154.54375462 5.15600586 160.15234375 C3 161 3 161 0 161 C0 107.87 0 54.74 0 0 Z " fill="#000000" transform="translate(197,339)"/>
</svg>
